<?xml version="1.0" encoding="utf-8"?>
<!-- Generator: Adobe Illustrator 23.0.0, SVG Export Plug-In . SVG Version: 6.00 Build 0)  -->
<svg version="1.1" id="Layer_1" xmlns="http://www.w3.org/2000/svg" xmlns:xlink="http://www.w3.org/1999/xlink" x="0px" y="0px"
	 viewBox="0 0 549.23 110.78" style="enable-background:new 0 0 549.23 110.78;" xml:space="preserve">
<style type="text/css">
	.st0{fill:#E83226;}
	.st1{fill:#000000;}
</style>
<g>
	<g id="XMLID_1_">
		<g>
			<path id="XMLID_224_" class="st0" d="M130.11,16.11c-3.49-1.66-7.19-2.46-11.32-2.46H89.94v8.07h28.85c2.97,0,5.48,1.08,7.48,3.2
				c2.08,2.22,3.09,5.12,3.09,8.86c0,3.71-1.01,6.59-3.09,8.81c-2,2.13-4.51,3.2-7.48,3.2l-28.84,0.06v32.87h11.7V53.85h17.14
				c4.13,0,7.83-0.81,11.32-2.46c3.51-1.67,6.24-3.97,8.35-7.04c2.11-3.02,3.18-6.57,3.18-10.57c0-4.09-1.04-7.57-3.18-10.63
				C136.34,20.13,133.62,17.83,130.11,16.11z"/>
			<path id="XMLID_221_" class="st0" d="M192,43.55c3.26-3.13,4.91-7.05,4.91-11.65c0-3.67-1.09-6.93-3.25-9.7
				c-2.12-2.72-4.85-4.8-8.37-6.35c-3.51-1.49-7.18-2.21-11.24-2.21h-28.85v65.07h11.7v-28.5h13.5l17.49,28.5h13.44l-18.37-29.86
				C186.48,47.73,189.52,45.95,192,43.55z M156.91,21.71h17.14c3.02,0,5.57,0.94,7.6,2.79c2,1.82,2.97,4.24,2.97,7.4
				c0,3.15-1,5.66-2.97,7.46c-2.03,1.85-4.59,2.79-7.6,2.79h-17.14V21.71z"/>
			<path id="XMLID_218_" class="st0" d="M252.87,16.85c-5.01-3.01-10.59-4.54-16.6-4.54c-5.99,0-11.54,1.53-16.49,4.54
				c-4.94,2.97-8.99,7.08-12.05,12.21c-3.04,5.12-4.59,10.84-4.59,17.01c0,6.14,1.54,11.84,4.59,16.96
				c3.02,5.07,7.07,9.16,12.04,12.15c5.01,3.05,10.56,4.6,16.5,4.6c5.95,0,11.53-1.55,16.61-4.6c5-3.05,9.05-7.13,12.03-12.15
				c3.05-5.13,4.54-10.68,4.54-16.96c0-6.23-1.53-11.96-4.54-17.01C261.9,23.99,257.85,19.88,252.87,16.85z M247.1,68.53
				c-3.1,2.15-6.75,3.24-10.82,3.24c-4.04,0-7.66-1.09-10.77-3.24c-3.15-2.18-5.54-5.14-7.33-9.07c-1.84-3.92-2.73-8.3-2.73-13.39
				c0-5.09,0.89-9.47,2.73-13.39c1.84-3.94,4.26-6.9,7.38-9.07c3.09-2.14,6.59-3.19,10.69-3.19c6.21,0.15,11.28,2.57,15.05,7.21
				c3.86,4.74,5.81,10.94,5.81,18.44c0,4.98-0.9,9.5-2.69,13.41C252.64,63.4,250.25,66.35,247.1,68.53z"/>
			<path id="XMLID_217_" class="st0" d="M314.32,45.78c-3.27-2.16-8.22-4.32-14.69-6.4c-2.98-0.99-5.78-2.05-8.34-3.15
				c-2.43-1.02-4.38-2.26-5.82-3.7c-1.27-1.27-1.86-2.78-1.86-4.74c0-1.88,1.1-3.56,3.28-5c2.46-1.62,5.8-2.41,10.22-2.41
				c2.38,0,4.53,0.33,6.37,0.98c2.09,0.8,3.72,1.59,4.97,2.4c1.41,0.94,2.38,1.69,3.07,2.38l2.66,2.54l5.9-5.32l-1.48-1.64
				c-1.24-1.37-2.84-2.74-4.76-4.08c-1.98-1.37-4.39-2.6-7.41-3.74c-2.95-1.06-6.04-1.58-9.47-1.58c-7.15,0-13.16,1.62-17.89,4.83
				c-4.93,3.41-7.43,7.89-7.43,13.32c0,5.62,2.58,10.18,7.67,13.55c3.2,2.13,8.18,4.32,14.81,6.52c3.48,1.16,6.04,2.11,8.33,3.09
				c2.33,1,4.26,2.23,5.75,3.67c1.22,1.18,1.78,2.61,1.78,4.51c0,1.76-0.49,3.25-1.56,4.7c-1.09,1.52-2.71,2.73-4.95,3.69
				c-2.37,1.02-5.38,1.53-8.94,1.53c-7.73-0.1-13.66-2.47-17.6-7.04l-1.49-1.73l-5.92,5.44l1.36,1.62c1.22,1.45,2.9,2.93,4.97,4.36
				c2.05,1.52,4.63,2.82,7.67,3.85c3.1,1.05,6.62,1.56,10.77,1.56c5.38,0,10.16-0.95,14.17-2.82c4.1-1.85,7.41-4.34,9.82-7.39
				c2.44-3.11,3.68-6.58,3.68-10.3C321.94,53.61,319.37,49.07,314.32,45.78z"/>
			<polygon id="XMLID_216_" class="st0" points="321.77,21.71 343.59,21.71 343.59,78.72 355.29,78.72 355.29,21.71 377.11,21.71 
				377.11,13.64 321.77,13.64 			"/>
			<polygon id="XMLID_215_" class="st0" points="392.38,50.21 425.1,50.21 425.1,42.15 392.38,42.15 392.38,21.71 428.74,21.71 
				428.74,13.64 380.68,13.64 380.68,78.72 429.97,78.72 429.97,70.65 392.38,70.65 			"/>
			<path id="XMLID_214_" class="st0" d="M453.27,23.62c3.15-2.18,6.66-3.24,10.72-3.24c6.14,0,11.21,2.44,15.06,7.25l1.55,1.93
				l7.08-7.08l-1.72-1.56c-2.94-2.66-6.32-4.79-10.07-6.35c-3.73-1.49-7.73-2.25-11.89-2.25c-5.99,0-11.54,1.53-16.49,4.54
				c-4.94,2.97-8.99,7.08-12.05,12.21c-3.05,5.12-4.59,10.84-4.59,17.01c0,6.14,1.54,11.85,4.59,16.96
				c3.02,5.07,7.07,9.16,12.04,12.15c5.01,3.05,10.56,4.6,16.5,4.6c4.22,0,8.23-0.78,11.89-2.3c3.7-1.48,7.09-3.6,10.08-6.3
				l1.72-1.56l-7.09-7.09l-1.55,1.95c-3.8,4.8-8.87,7.24-15.06,7.24c-4.04,0-7.66-1.09-10.77-3.24c-3.17-2.19-5.56-5.14-7.33-9.01
				c-1.84-3.92-2.73-8.3-2.73-13.39c0-5.12,0.89-9.52,2.73-13.44C447.75,28.72,450.16,25.77,453.27,23.62z"/>
			<polygon id="XMLID_213_" class="st0" points="537.53,13.64 537.53,42.15 501.96,42.15 501.96,13.64 490.26,13.64 490.26,78.72 
				501.96,78.72 501.96,50.21 537.53,50.21 537.53,78.72 549.23,78.72 549.23,13.64 			"/>
		</g>
	</g>
	<g id="XMLID_1054_">
		<g>
			<path id="XMLID_190_" class="st0" d="M35.64,83.53v9.08H20.52c-2.51,0-4.54-2.03-4.54-4.54V86.3c0-1.05-0.35-2.01-0.95-2.78
				c-0.83-1.07-2.13-1.77-3.59-1.77H0v-9.08h11.44c2.51,0,4.54,2.03,4.54,4.54v1.77c0,1.05,0.35,2.01,0.95,2.78
				c0.82,1.07,2.13,1.77,3.59,1.77H35.64z"/>
			<path id="XMLID_189_" class="st0" d="M35.64,10.85v9.08H20.52c-2.51,0-4.54-2.03-4.54-4.54v-1.76c0-1.05-0.35-2.01-0.95-2.78
				c-0.83-1.07-2.13-1.76-3.59-1.76H0V0h11.44c2.51,0,4.54,2.03,4.54,4.54v1.76c0,1.05,0.35,2.01,0.95,2.78
				c0.82,1.07,2.13,1.76,3.59,1.76H35.64z"/>
			<path id="XMLID_188_" class="st0" d="M35.64,29.02v9.08H20.52c-2.51,0-4.54-2.03-4.54-4.54v-1.76c0-1.05-0.35-2.01-0.95-2.78
				c-0.83-1.07-2.13-1.77-3.59-1.77H0v-9.08h11.44c2.51,0,4.54,2.03,4.54,4.54v1.77c0,1.05,0.35,2.01,0.95,2.78
				c0.82,1.07,2.13,1.77,3.59,1.77H35.64z"/>
			<path id="XMLID_187_" class="st0" d="M35.64,47.19v9.08H20.52c-2.51,0-4.54-2.03-4.54-4.54v-1.76c0-1.05-0.35-2.01-0.95-2.78
				c-0.83-1.07-2.13-1.76-3.59-1.76H0v-9.08h11.44c2.51,0,4.54,2.03,4.54,4.54v1.77c0,1.05,0.35,2.01,0.95,2.78
				c0.82,1.07,2.13,1.76,3.59,1.76H35.64z"/>
			<path id="XMLID_186_" class="st0" d="M71.29,21.7L71.29,21.7l-15.12,0c-2.51,0-4.54-2.03-4.54-4.54v-1.77
				c0-1.05-0.35-2.01-0.95-2.78c-0.83-1.07-2.13-1.77-3.59-1.77H35.64V1.77h11.44c2.51,0,4.54,2.03,4.54,4.54v1.77
				c0,1.05,0.35,2.01,0.95,2.78c0.82,1.07,2.13,1.77,3.59,1.77h6.04C67.22,12.62,71.29,16.68,71.29,21.7z"/>
			<path id="XMLID_185_" class="st0" d="M71.29,30.79v9.08H56.17c-2.51,0-4.54-2.03-4.54-4.54v-1.76c0-1.05-0.35-2.01-0.95-2.78
				c-0.83-1.07-2.13-1.77-3.59-1.77H35.64v-9.08h11.44c2.51,0,4.54,2.03,4.54,4.54v1.76c0,1.05,0.35,2.01,0.95,2.78
				c0.82,1.07,2.13,1.77,3.59,1.77H71.29z"/>
			<path id="XMLID_184_" class="st0" d="M71.29,48.96L71.29,48.96c0,5.02-4.07,9.08-9.08,9.08h-6.04c-2.51,0-4.54-2.03-4.54-4.54
				v-1.77c0-1.05-0.35-2.01-0.95-2.78c-0.83-1.07-2.13-1.77-3.59-1.77H35.64v-9.08h11.44c2.51,0,4.54,2.03,4.54,4.54v1.77
				c0,1.05,0.35,2.01,0.95,2.78c0.82,1.07,2.13,1.77,3.59,1.77H71.29z"/>
			<path id="XMLID_183_" class="st0" d="M35.64,65.36v9.08H20.52c-2.51,0-4.54-2.03-4.54-4.54v-1.76c0-1.05-0.35-2.01-0.95-2.78
				c-0.83-1.07-2.13-1.76-3.59-1.76H0v-9.08h11.44c2.51,0,4.54,2.03,4.54,4.54v1.76c0,1.05,0.35,2.01,0.95,2.78
				c0.82,1.07,2.13,1.76,3.59,1.76H35.64z"/>
			<path id="XMLID_182_" class="st0" d="M35.64,101.69L35.64,101.69c0,5.02-4.07,9.08-9.08,9.08h-6.04c-2.51,0-4.54-2.03-4.54-4.54
				v-1.76c0-1.05-0.35-2.01-0.95-2.78c-0.83-1.07-2.13-1.76-3.59-1.76H0v-9.08h11.44c2.51,0,4.54,2.03,4.54,4.54v1.76
				c0,1.05,0.35,2.01,0.95,2.78c0.82,1.07,2.13,1.76,3.59,1.76H35.64z"/>
		</g>
	</g>
	<g id="XMLID_3_">
		<g>
			<path id="XMLID_964_" class="st1" d="M98.6,93.03c-0.26-0.34-0.63-0.63-1.11-0.86c-0.48-0.23-0.96-0.35-1.45-0.35
				c-0.29,0-0.58,0.04-0.87,0.11c-0.29,0.07-0.55,0.18-0.79,0.33c-0.24,0.15-0.43,0.35-0.58,0.59c-0.15,0.24-0.23,0.54-0.23,0.88
				c0,0.32,0.07,0.59,0.2,0.81c0.13,0.22,0.31,0.41,0.54,0.57c0.23,0.16,0.51,0.3,0.84,0.41c0.33,0.12,0.69,0.24,1.08,0.36
				c0.45,0.15,0.91,0.31,1.39,0.49c0.48,0.18,0.92,0.43,1.32,0.73c0.4,0.3,0.73,0.68,0.99,1.14c0.26,0.46,0.38,1.03,0.38,1.72
				c0,0.75-0.14,1.4-0.41,1.96c-0.28,0.56-0.64,1.02-1.1,1.39c-0.46,0.37-1,0.64-1.62,0.83c-0.62,0.18-1.27,0.28-1.95,0.28
				c-0.91,0-1.8-0.17-2.66-0.5c-0.87-0.34-1.58-0.83-2.13-1.49l1.78-1.66c0.34,0.47,0.8,0.85,1.37,1.12
				c0.57,0.28,1.13,0.41,1.69,0.41c0.29,0,0.59-0.04,0.89-0.11c0.3-0.07,0.58-0.19,0.82-0.36c0.24-0.17,0.44-0.38,0.59-0.64
				c0.15-0.26,0.23-0.58,0.23-0.96c0-0.37-0.09-0.67-0.26-0.92c-0.17-0.24-0.4-0.45-0.69-0.63c-0.29-0.18-0.63-0.33-1.03-0.46
				c-0.39-0.13-0.81-0.27-1.24-0.42c-0.42-0.13-0.84-0.29-1.26-0.47c-0.42-0.18-0.8-0.43-1.13-0.73c-0.34-0.3-0.61-0.67-0.82-1.12
				c-0.21-0.44-0.32-0.99-0.32-1.65c0-0.71,0.15-1.32,0.44-1.83c0.3-0.51,0.68-0.94,1.16-1.27c0.48-0.33,1.03-0.58,1.64-0.75
				c0.61-0.16,1.23-0.25,1.86-0.25c0.71,0,1.43,0.12,2.16,0.37c0.73,0.25,1.36,0.63,1.9,1.13L98.6,93.03z"/>
			<path id="XMLID_961_" class="st1" d="M105.44,94.61v1.32h0.06c0.12-0.18,0.27-0.37,0.46-0.56c0.19-0.19,0.42-0.36,0.7-0.51
				c0.28-0.15,0.59-0.28,0.94-0.37c0.35-0.1,0.74-0.15,1.17-0.15c0.67,0,1.29,0.13,1.85,0.39c0.57,0.26,1.05,0.61,1.46,1.05
				c0.41,0.45,0.72,0.97,0.95,1.58c0.22,0.6,0.34,1.26,0.34,1.95c0,0.7-0.11,1.35-0.33,1.96c-0.22,0.61-0.53,1.14-0.93,1.6
				c-0.4,0.45-0.89,0.82-1.46,1.08c-0.57,0.27-1.22,0.41-1.94,0.41c-0.67,0-1.29-0.14-1.84-0.42c-0.56-0.28-0.99-0.65-1.29-1.12
				h-0.04v6h-2.37V94.61H105.44z M110.97,99.31c0-0.37-0.06-0.73-0.17-1.1c-0.11-0.36-0.28-0.69-0.5-0.98
				c-0.22-0.29-0.51-0.52-0.85-0.7c-0.34-0.18-0.74-0.27-1.2-0.27c-0.43,0-0.82,0.09-1.16,0.28c-0.34,0.18-0.63,0.42-0.88,0.71
				c-0.24,0.29-0.43,0.62-0.55,0.99c-0.13,0.37-0.19,0.74-0.19,1.1c0,0.37,0.06,0.73,0.19,1.09c0.12,0.36,0.31,0.69,0.55,0.98
				c0.24,0.29,0.54,0.52,0.88,0.7c0.34,0.18,0.73,0.27,1.16,0.27c0.46,0,0.86-0.09,1.2-0.28c0.34-0.18,0.62-0.42,0.85-0.71
				c0.22-0.29,0.39-0.62,0.5-0.99C110.91,100.04,110.97,99.68,110.97,99.31z"/>
			<path id="XMLID_958_" class="st1" d="M125.19,99.46c0,0.11,0,0.21,0,0.32c0,0.11-0.01,0.21-0.02,0.31h-7.2
				c0.03,0.34,0.12,0.66,0.27,0.94c0.15,0.28,0.35,0.53,0.6,0.73c0.25,0.2,0.53,0.36,0.85,0.48c0.32,0.12,0.64,0.18,0.99,0.18
				c0.59,0,1.09-0.11,1.5-0.32c0.41-0.22,0.74-0.52,1.01-0.9l1.58,1.26c-0.93,1.26-2.29,1.89-4.06,1.89c-0.74,0-1.41-0.12-2.03-0.35
				c-0.62-0.23-1.15-0.56-1.61-0.98c-0.45-0.42-0.81-0.94-1.07-1.55c-0.26-0.61-0.38-1.31-0.38-2.08c0-0.76,0.13-1.46,0.38-2.08
				c0.26-0.63,0.61-1.16,1.06-1.6c0.45-0.44,0.98-0.78,1.59-1.03c0.61-0.24,1.27-0.36,1.98-0.36c0.66,0,1.27,0.11,1.82,0.33
				c0.56,0.22,1.04,0.54,1.45,0.97c0.41,0.43,0.73,0.96,0.96,1.6C125.08,97.86,125.19,98.61,125.19,99.46z M122.82,98.4
				c0-0.3-0.04-0.59-0.13-0.87c-0.09-0.28-0.22-0.52-0.4-0.73c-0.18-0.21-0.42-0.38-0.7-0.5c-0.28-0.12-0.61-0.19-1-0.19
				c-0.71,0-1.31,0.21-1.8,0.64c-0.49,0.43-0.77,0.98-0.82,1.65H122.82z"/>
			<path id="XMLID_956_" class="st1" d="M134.44,97.24c-0.18-0.26-0.46-0.48-0.83-0.66c-0.37-0.18-0.74-0.27-1.12-0.27
				c-0.43,0-0.82,0.09-1.14,0.27c-0.33,0.18-0.6,0.41-0.82,0.7c-0.22,0.29-0.38,0.61-0.48,0.98c-0.11,0.36-0.16,0.73-0.16,1.09
				c0,0.37,0.06,0.73,0.17,1.09c0.11,0.36,0.28,0.69,0.5,0.98c0.22,0.29,0.5,0.52,0.84,0.7c0.34,0.18,0.73,0.27,1.17,0.27
				c0.37,0,0.74-0.07,1.1-0.22c0.37-0.15,0.66-0.36,0.89-0.63l1.48,1.5c-0.39,0.42-0.9,0.75-1.51,0.98
				c-0.61,0.23-1.27,0.35-1.98,0.35c-0.7,0-1.36-0.11-1.98-0.34c-0.62-0.22-1.17-0.55-1.64-0.99c-0.47-0.43-0.84-0.96-1.1-1.58
				c-0.27-0.62-0.4-1.32-0.4-2.11c0-0.76,0.13-1.45,0.4-2.07c0.27-0.62,0.63-1.14,1.1-1.58c0.46-0.43,1-0.77,1.61-1.01
				c0.61-0.24,1.27-0.36,1.96-0.36c0.7,0,1.37,0.13,2.02,0.39c0.65,0.26,1.17,0.63,1.55,1.09L134.44,97.24z"/>
			<path id="XMLID_953_" class="st1" d="M137.8,91.4c0-0.38,0.14-0.71,0.42-1c0.28-0.28,0.64-0.42,1.08-0.42
				c0.43,0,0.8,0.14,1.1,0.4c0.3,0.27,0.44,0.61,0.44,1.02c0,0.41-0.15,0.75-0.44,1.02c-0.3,0.27-0.66,0.4-1.1,0.4
				c-0.43,0-0.79-0.14-1.08-0.42C137.94,92.11,137.8,91.78,137.8,91.4z M138.13,94.61h2.37v9.47h-2.37V94.61z"/>
			<path id="XMLID_950_" class="st1" d="M149.75,102.88h-0.06c-0.24,0.42-0.62,0.77-1.14,1.04c-0.53,0.27-1.12,0.4-1.8,0.4
				c-0.38,0-0.78-0.05-1.19-0.15c-0.41-0.1-0.8-0.26-1.14-0.49c-0.35-0.23-0.64-0.53-0.87-0.91c-0.23-0.37-0.35-0.84-0.35-1.39
				c0-0.71,0.2-1.28,0.6-1.7c0.4-0.42,0.92-0.74,1.55-0.97c0.63-0.22,1.33-0.37,2.1-0.44c0.77-0.07,1.52-0.11,2.26-0.11v-0.24
				c0-0.59-0.21-1.03-0.64-1.31c-0.43-0.28-0.94-0.42-1.53-0.42c-0.5,0-0.98,0.11-1.44,0.31c-0.46,0.21-0.84,0.47-1.14,0.77
				l-1.22-1.44c0.54-0.5,1.16-0.87,1.86-1.13c0.7-0.25,1.42-0.37,2.14-0.37c0.84,0,1.54,0.12,2.08,0.36
				c0.55,0.24,0.98,0.55,1.29,0.93s0.54,0.81,0.66,1.28c0.12,0.47,0.19,0.95,0.19,1.42v5.76h-2.21V102.88z M149.71,99.76h-0.53
				c-0.38,0-0.78,0.02-1.2,0.05c-0.42,0.03-0.81,0.11-1.16,0.22c-0.36,0.11-0.65,0.27-0.89,0.47c-0.24,0.2-0.36,0.48-0.36,0.84
				c0,0.22,0.05,0.41,0.15,0.56c0.1,0.15,0.23,0.27,0.38,0.36c0.16,0.09,0.34,0.16,0.53,0.2c0.2,0.04,0.39,0.06,0.59,0.06
				c0.82,0,1.43-0.22,1.85-0.65c0.42-0.43,0.63-1.03,0.63-1.78V99.76z"/>
			<path id="XMLID_948_" class="st1" d="M155.26,89.17h2.37v14.92h-2.37V89.17z"/>
			<path id="XMLID_946_" class="st1" d="M159.64,96.5v-1.89h1.66v-2.74h2.33v2.74h2.37v1.89h-2.37v4.4c0,0.42,0.08,0.77,0.23,1.05
				c0.15,0.28,0.49,0.42,1.02,0.42c0.16,0,0.33-0.02,0.51-0.05c0.18-0.03,0.35-0.08,0.49-0.15l0.08,1.85
				c-0.21,0.08-0.46,0.14-0.75,0.19c-0.29,0.05-0.57,0.07-0.83,0.07c-0.63,0-1.14-0.09-1.54-0.27c-0.39-0.18-0.71-0.42-0.94-0.73
				c-0.23-0.31-0.39-0.66-0.47-1.07c-0.09-0.4-0.13-0.83-0.13-1.29V96.5H159.64z"/>
			<path id="XMLID_944_" class="st1" d="M166.78,94.61h2.62l2.64,6.89h0.04l2.35-6.89h2.47l-4.48,11.5
				c-0.17,0.43-0.35,0.82-0.55,1.15c-0.2,0.34-0.43,0.62-0.71,0.85c-0.28,0.23-0.6,0.4-0.98,0.52c-0.38,0.12-0.83,0.18-1.35,0.18
				c-0.2,0-0.4-0.01-0.6-0.03c-0.2-0.02-0.41-0.06-0.62-0.11l0.2-2.05c0.16,0.05,0.31,0.09,0.46,0.11c0.15,0.02,0.29,0.03,0.42,0.03
				c0.25,0,0.46-0.03,0.63-0.09c0.17-0.06,0.32-0.15,0.43-0.28c0.12-0.12,0.22-0.28,0.32-0.46c0.09-0.18,0.19-0.4,0.3-0.65l0.47-1.2
				L166.78,94.61z"/>
			<path id="XMLID_942_" class="st1" d="M195.55,94.34c0.62,0,1.15,0.11,1.59,0.33c0.44,0.22,0.8,0.5,1.08,0.86
				c0.28,0.36,0.49,0.76,0.62,1.22c0.13,0.46,0.2,0.93,0.2,1.42v5.92h-2.37v-5.25c0-0.28-0.02-0.56-0.06-0.87
				c-0.04-0.3-0.13-0.57-0.26-0.82c-0.13-0.24-0.31-0.44-0.54-0.6c-0.23-0.16-0.54-0.24-0.92-0.24c-0.37,0-0.68,0.08-0.95,0.24
				c-0.26,0.16-0.48,0.36-0.65,0.61c-0.17,0.25-0.3,0.53-0.38,0.84c-0.08,0.31-0.12,0.61-0.12,0.92v5.17h-2.37v-5.72
				c0-0.59-0.14-1.08-0.42-1.47c-0.28-0.39-0.73-0.58-1.33-0.58c-0.36,0-0.66,0.08-0.93,0.23c-0.26,0.15-0.48,0.34-0.64,0.58
				c-0.16,0.24-0.29,0.51-0.37,0.82c-0.09,0.31-0.13,0.62-0.13,0.94v5.21h-2.37v-9.47h2.25v1.52h0.04c0.1-0.24,0.25-0.46,0.42-0.67
				c0.18-0.21,0.39-0.4,0.63-0.57c0.24-0.17,0.52-0.3,0.84-0.4c0.32-0.1,0.66-0.15,1.05-0.15c0.74,0,1.35,0.17,1.84,0.49
				c0.49,0.33,0.86,0.76,1.12,1.3c0.32-0.58,0.74-1.02,1.26-1.33C194.22,94.49,194.83,94.34,195.55,94.34z"/>
			<path id="XMLID_939_" class="st1" d="M208.17,102.88h-0.06c-0.24,0.42-0.62,0.77-1.14,1.04c-0.53,0.27-1.12,0.4-1.8,0.4
				c-0.38,0-0.78-0.05-1.19-0.15c-0.41-0.1-0.8-0.26-1.14-0.49c-0.35-0.23-0.64-0.53-0.87-0.91c-0.23-0.37-0.35-0.84-0.35-1.39
				c0-0.71,0.2-1.28,0.6-1.7c0.4-0.42,0.92-0.74,1.55-0.97s1.33-0.37,2.1-0.44s1.52-0.11,2.26-0.11v-0.24
				c0-0.59-0.21-1.03-0.64-1.31c-0.43-0.28-0.94-0.42-1.53-0.42c-0.5,0-0.98,0.11-1.44,0.31c-0.46,0.21-0.84,0.47-1.14,0.77
				l-1.22-1.44c0.54-0.5,1.16-0.87,1.86-1.13c0.7-0.25,1.42-0.37,2.14-0.37c0.84,0,1.54,0.12,2.08,0.36
				c0.55,0.24,0.98,0.55,1.29,0.93s0.54,0.81,0.66,1.28c0.12,0.47,0.19,0.95,0.19,1.42v5.76h-2.21V102.88z M208.13,99.76h-0.53
				c-0.38,0-0.78,0.02-1.2,0.05c-0.42,0.03-0.81,0.11-1.16,0.22c-0.36,0.11-0.65,0.27-0.89,0.47c-0.24,0.2-0.36,0.48-0.36,0.84
				c0,0.22,0.05,0.41,0.15,0.56c0.1,0.15,0.23,0.27,0.38,0.36c0.16,0.09,0.34,0.16,0.53,0.2c0.2,0.04,0.39,0.06,0.59,0.06
				c0.82,0,1.43-0.22,1.85-0.65c0.42-0.43,0.63-1.03,0.63-1.78V99.76z"/>
			<path id="XMLID_937_" class="st1" d="M212.08,96.5v-1.89h1.66v-2.74h2.33v2.74h2.37v1.89h-2.37v4.4c0,0.42,0.08,0.77,0.23,1.05
				c0.15,0.28,0.49,0.42,1.02,0.42c0.16,0,0.33-0.02,0.51-0.05c0.18-0.03,0.35-0.08,0.49-0.15l0.08,1.85
				c-0.21,0.08-0.46,0.14-0.75,0.19c-0.29,0.05-0.57,0.07-0.83,0.07c-0.63,0-1.14-0.09-1.54-0.27c-0.39-0.18-0.71-0.42-0.94-0.73
				c-0.23-0.31-0.39-0.66-0.47-1.07c-0.09-0.4-0.13-0.83-0.13-1.29V96.5H212.08z"/>
			<path id="XMLID_934_" class="st1" d="M229.68,99.46c0,0.11,0,0.21,0,0.32c0,0.11-0.01,0.21-0.02,0.31h-7.2
				c0.03,0.34,0.12,0.66,0.27,0.94c0.15,0.28,0.35,0.53,0.6,0.73c0.25,0.2,0.53,0.36,0.85,0.48c0.32,0.12,0.64,0.18,0.99,0.18
				c0.59,0,1.09-0.11,1.5-0.32c0.41-0.22,0.74-0.52,1.01-0.9l1.58,1.26c-0.93,1.26-2.29,1.89-4.06,1.89c-0.74,0-1.41-0.12-2.03-0.35
				c-0.62-0.23-1.15-0.56-1.61-0.98c-0.45-0.42-0.81-0.94-1.07-1.55c-0.26-0.61-0.38-1.31-0.38-2.08c0-0.76,0.13-1.46,0.38-2.08
				c0.26-0.63,0.61-1.16,1.06-1.6c0.45-0.44,0.98-0.78,1.59-1.03c0.61-0.24,1.27-0.36,1.98-0.36c0.66,0,1.27,0.11,1.82,0.33
				c0.56,0.22,1.04,0.54,1.45,0.97c0.41,0.43,0.73,0.96,0.96,1.6C229.56,97.86,229.68,98.61,229.68,99.46z M227.31,98.4
				c0-0.3-0.04-0.59-0.13-0.87c-0.09-0.28-0.22-0.52-0.4-0.73c-0.18-0.21-0.42-0.38-0.7-0.5c-0.28-0.12-0.61-0.19-1-0.19
				c-0.71,0-1.31,0.21-1.81,0.64c-0.49,0.43-0.77,0.98-0.82,1.65H227.31z"/>
			<path id="XMLID_932_" class="st1" d="M232.46,94.61h2.27v1.58h0.04c0.26-0.55,0.63-1,1.1-1.34c0.47-0.34,1.03-0.51,1.66-0.51
				c0.09,0,0.19,0,0.3,0.01c0.11,0.01,0.2,0.02,0.28,0.05v2.17c-0.16-0.04-0.29-0.06-0.4-0.08c-0.11-0.01-0.22-0.02-0.33-0.02
				c-0.54,0-0.97,0.1-1.3,0.3c-0.33,0.2-0.59,0.43-0.77,0.71s-0.31,0.56-0.38,0.85c-0.07,0.29-0.1,0.52-0.1,0.69v5.07h-2.37V94.61z"
				/>
			<path id="XMLID_929_" class="st1" d="M239.84,91.4c0-0.38,0.14-0.71,0.42-1c0.28-0.28,0.64-0.42,1.08-0.42
				c0.43,0,0.8,0.14,1.1,0.4c0.3,0.27,0.44,0.61,0.44,1.02c0,0.41-0.15,0.75-0.44,1.02c-0.3,0.27-0.66,0.4-1.1,0.4
				c-0.43,0-0.79-0.14-1.08-0.42C239.98,92.11,239.84,91.78,239.84,91.4z M240.17,94.61h2.37v9.47h-2.37V94.61z"/>
			<path id="XMLID_926_" class="st1" d="M251.79,102.88h-0.06c-0.24,0.42-0.62,0.77-1.14,1.04c-0.53,0.27-1.12,0.4-1.8,0.4
				c-0.38,0-0.78-0.05-1.19-0.15c-0.41-0.1-0.8-0.26-1.14-0.49c-0.35-0.23-0.64-0.53-0.87-0.91c-0.23-0.37-0.35-0.84-0.35-1.39
				c0-0.71,0.2-1.28,0.6-1.7c0.4-0.42,0.92-0.74,1.55-0.97c0.63-0.22,1.33-0.37,2.1-0.44c0.77-0.07,1.52-0.11,2.26-0.11v-0.24
				c0-0.59-0.21-1.03-0.64-1.31c-0.43-0.28-0.94-0.42-1.53-0.42c-0.5,0-0.98,0.11-1.44,0.31c-0.46,0.21-0.84,0.47-1.14,0.77
				l-1.22-1.44c0.54-0.5,1.16-0.87,1.86-1.13c0.7-0.25,1.42-0.37,2.14-0.37c0.84,0,1.54,0.12,2.08,0.36
				c0.55,0.24,0.98,0.55,1.29,0.93c0.32,0.38,0.54,0.81,0.66,1.28c0.12,0.47,0.19,0.95,0.19,1.42v5.76h-2.21V102.88z M251.75,99.76
				h-0.53c-0.38,0-0.78,0.02-1.2,0.05c-0.42,0.03-0.81,0.11-1.16,0.22c-0.36,0.11-0.65,0.27-0.89,0.47
				c-0.24,0.2-0.36,0.48-0.36,0.84c0,0.22,0.05,0.41,0.15,0.56c0.1,0.15,0.23,0.27,0.38,0.36c0.16,0.09,0.34,0.16,0.53,0.2
				c0.2,0.04,0.39,0.06,0.59,0.06c0.82,0,1.43-0.22,1.85-0.65c0.42-0.43,0.63-1.03,0.63-1.78V99.76z"/>
			<path id="XMLID_924_" class="st1" d="M257.3,89.17h2.37v14.92h-2.37V89.17z"/>
			<path id="XMLID_922_" class="st1" d="M268.23,97.14c-0.21-0.28-0.5-0.52-0.87-0.72c-0.37-0.2-0.77-0.3-1.2-0.3
				c-0.38,0-0.73,0.08-1.05,0.24c-0.32,0.16-0.47,0.42-0.47,0.79c0,0.37,0.17,0.63,0.52,0.78c0.35,0.15,0.86,0.31,1.53,0.46
				c0.36,0.08,0.71,0.18,1.08,0.32c0.36,0.13,0.69,0.3,0.99,0.52c0.3,0.22,0.54,0.49,0.72,0.81c0.18,0.32,0.28,0.71,0.28,1.17
				c0,0.58-0.11,1.07-0.33,1.47c-0.22,0.4-0.51,0.73-0.87,0.98c-0.36,0.25-0.78,0.43-1.26,0.54c-0.48,0.11-0.98,0.17-1.49,0.17
				c-0.74,0-1.45-0.14-2.15-0.41c-0.7-0.27-1.28-0.65-1.74-1.15l1.56-1.46c0.26,0.34,0.6,0.63,1.03,0.85
				c0.42,0.22,0.89,0.33,1.4,0.33c0.17,0,0.35-0.02,0.52-0.06c0.18-0.04,0.34-0.1,0.49-0.19c0.15-0.09,0.27-0.2,0.36-0.35
				c0.09-0.15,0.14-0.32,0.14-0.53c0-0.39-0.18-0.68-0.54-0.85c-0.36-0.17-0.9-0.34-1.63-0.51c-0.36-0.08-0.7-0.18-1.04-0.31
				c-0.34-0.12-0.63-0.29-0.9-0.49c-0.26-0.2-0.47-0.46-0.63-0.76c-0.16-0.3-0.24-0.68-0.24-1.12c0-0.53,0.11-0.98,0.33-1.36
				c0.22-0.38,0.5-0.69,0.86-0.94c0.36-0.24,0.76-0.42,1.2-0.54c0.45-0.12,0.91-0.18,1.38-0.18c0.68,0,1.35,0.12,2,0.36
				c0.65,0.24,1.17,0.6,1.55,1.08L268.23,97.14z"/>
			<path id="XMLID_919_" class="st1" d="M283.6,102.88h-0.06c-0.24,0.42-0.62,0.77-1.14,1.04c-0.53,0.27-1.12,0.4-1.8,0.4
				c-0.38,0-0.78-0.05-1.19-0.15c-0.41-0.1-0.8-0.26-1.14-0.49c-0.35-0.23-0.64-0.53-0.87-0.91c-0.23-0.37-0.35-0.84-0.35-1.39
				c0-0.71,0.2-1.28,0.6-1.7c0.4-0.42,0.92-0.74,1.55-0.97c0.63-0.22,1.33-0.37,2.1-0.44c0.77-0.07,1.52-0.11,2.26-0.11v-0.24
				c0-0.59-0.21-1.03-0.64-1.31c-0.43-0.28-0.94-0.42-1.53-0.42c-0.5,0-0.98,0.11-1.44,0.31c-0.46,0.21-0.84,0.47-1.14,0.77
				l-1.22-1.44c0.54-0.5,1.16-0.87,1.86-1.13c0.7-0.25,1.42-0.37,2.14-0.37c0.84,0,1.54,0.12,2.08,0.36
				c0.55,0.24,0.98,0.55,1.29,0.93c0.32,0.38,0.54,0.81,0.66,1.28c0.12,0.47,0.19,0.95,0.19,1.42v5.76h-2.21V102.88z M283.56,99.76
				h-0.53c-0.38,0-0.78,0.02-1.2,0.05c-0.42,0.03-0.81,0.11-1.16,0.22c-0.36,0.11-0.65,0.27-0.89,0.47
				c-0.24,0.2-0.36,0.48-0.36,0.84c0,0.22,0.05,0.41,0.15,0.56c0.1,0.15,0.23,0.27,0.38,0.36c0.16,0.09,0.34,0.16,0.53,0.2
				c0.2,0.04,0.39,0.06,0.59,0.06c0.82,0,1.43-0.22,1.85-0.65c0.42-0.43,0.63-1.03,0.63-1.78V99.76z"/>
			<path id="XMLID_917_" class="st1" d="M289.06,94.61h2.25v1.52h0.04c0.21-0.47,0.57-0.89,1.09-1.25c0.52-0.36,1.14-0.54,1.84-0.54
				c0.62,0,1.15,0.11,1.59,0.33c0.44,0.22,0.8,0.5,1.08,0.86c0.28,0.36,0.49,0.76,0.62,1.22c0.13,0.46,0.2,0.93,0.2,1.42v5.92h-2.37
				v-5.25c0-0.28-0.02-0.56-0.06-0.87c-0.04-0.3-0.12-0.57-0.26-0.82c-0.13-0.24-0.31-0.44-0.54-0.6c-0.23-0.16-0.54-0.24-0.92-0.24
				c-0.38,0-0.71,0.08-0.99,0.23c-0.28,0.15-0.5,0.34-0.68,0.58c-0.18,0.24-0.31,0.51-0.4,0.82c-0.09,0.31-0.14,0.62-0.14,0.94v5.21
				h-2.37V94.61z"/>
			<path id="XMLID_914_" class="st1" d="M310.67,104.08h-2.25v-1.42h-0.04c-0.33,0.55-0.79,0.97-1.37,1.26
				c-0.58,0.29-1.21,0.43-1.88,0.43c-0.72,0-1.37-0.14-1.94-0.41c-0.57-0.27-1.06-0.63-1.46-1.08c-0.4-0.45-0.71-0.99-0.93-1.6
				c-0.22-0.61-0.33-1.27-0.33-1.96c0-0.7,0.11-1.35,0.33-1.95c0.22-0.6,0.54-1.13,0.95-1.58c0.41-0.45,0.89-0.8,1.46-1.05
				c0.57-0.26,1.18-0.39,1.85-0.39c0.43,0,0.82,0.05,1.16,0.15c0.34,0.1,0.64,0.22,0.9,0.36c0.26,0.14,0.48,0.3,0.66,0.47
				c0.18,0.17,0.33,0.34,0.45,0.49h0.06v-6.65h2.37V104.08z M302.87,99.31c0,0.37,0.06,0.74,0.17,1.11c0.11,0.37,0.28,0.7,0.5,0.99
				c0.22,0.29,0.51,0.53,0.85,0.71c0.34,0.18,0.74,0.28,1.2,0.28c0.43,0,0.82-0.09,1.16-0.27c0.34-0.18,0.63-0.41,0.88-0.7
				c0.24-0.29,0.43-0.61,0.55-0.98c0.12-0.36,0.19-0.73,0.19-1.09c0-0.37-0.06-0.74-0.19-1.1c-0.13-0.37-0.31-0.7-0.55-0.99
				c-0.24-0.29-0.54-0.53-0.88-0.71c-0.34-0.18-0.73-0.28-1.16-0.28c-0.46,0-0.86,0.09-1.2,0.27c-0.34,0.18-0.63,0.41-0.85,0.7
				c-0.22,0.29-0.39,0.62-0.5,0.98C302.93,98.57,302.87,98.94,302.87,99.31z"/>
			<path id="XMLID_912_" class="st1" d="M330.77,94.34c0.62,0,1.15,0.11,1.59,0.33c0.44,0.22,0.8,0.5,1.08,0.86
				c0.28,0.36,0.49,0.76,0.62,1.22c0.13,0.46,0.2,0.93,0.2,1.42v5.92h-2.37v-5.25c0-0.28-0.02-0.56-0.06-0.87
				c-0.04-0.3-0.13-0.57-0.26-0.82c-0.13-0.24-0.31-0.44-0.54-0.6c-0.23-0.16-0.54-0.24-0.92-0.24c-0.37,0-0.68,0.08-0.95,0.24
				c-0.26,0.16-0.48,0.36-0.65,0.61c-0.17,0.25-0.3,0.53-0.38,0.84c-0.08,0.31-0.12,0.61-0.12,0.92v5.17h-2.37v-5.72
				c0-0.59-0.14-1.08-0.42-1.47c-0.28-0.39-0.73-0.58-1.33-0.58c-0.36,0-0.66,0.08-0.93,0.23c-0.26,0.15-0.48,0.34-0.64,0.58
				c-0.16,0.24-0.29,0.51-0.37,0.82c-0.09,0.31-0.13,0.62-0.13,0.94v5.21h-2.37v-9.47h2.25v1.52h0.04c0.1-0.24,0.25-0.46,0.42-0.67
				c0.18-0.21,0.39-0.4,0.63-0.57c0.24-0.17,0.52-0.3,0.84-0.4c0.32-0.1,0.66-0.15,1.05-0.15c0.74,0,1.35,0.17,1.84,0.49
				c0.49,0.33,0.86,0.76,1.12,1.3c0.32-0.58,0.74-1.02,1.26-1.33C329.44,94.49,330.06,94.34,330.77,94.34z"/>
			<path id="XMLID_909_" class="st1" d="M343.4,102.88h-0.06c-0.24,0.42-0.62,0.77-1.14,1.04c-0.53,0.27-1.12,0.4-1.8,0.4
				c-0.38,0-0.78-0.05-1.19-0.15c-0.41-0.1-0.8-0.26-1.14-0.49c-0.35-0.23-0.64-0.53-0.87-0.91c-0.23-0.37-0.35-0.84-0.35-1.39
				c0-0.71,0.2-1.28,0.6-1.7c0.4-0.42,0.92-0.74,1.55-0.97c0.63-0.22,1.33-0.37,2.1-0.44c0.77-0.07,1.52-0.11,2.26-0.11v-0.24
				c0-0.59-0.21-1.03-0.64-1.31c-0.43-0.28-0.94-0.42-1.53-0.42c-0.5,0-0.98,0.11-1.44,0.31c-0.46,0.21-0.84,0.47-1.14,0.77
				l-1.22-1.44c0.54-0.5,1.16-0.87,1.86-1.13c0.7-0.25,1.42-0.37,2.14-0.37c0.84,0,1.54,0.12,2.08,0.36
				c0.55,0.24,0.98,0.55,1.29,0.93c0.32,0.38,0.54,0.81,0.66,1.28c0.12,0.47,0.19,0.95,0.19,1.42v5.76h-2.21V102.88z M343.36,99.76
				h-0.53c-0.38,0-0.78,0.02-1.2,0.05c-0.42,0.03-0.81,0.11-1.16,0.22c-0.36,0.11-0.65,0.27-0.89,0.47
				c-0.24,0.2-0.36,0.48-0.36,0.84c0,0.22,0.05,0.41,0.15,0.56c0.1,0.15,0.23,0.27,0.39,0.36c0.16,0.09,0.33,0.16,0.53,0.2
				c0.2,0.04,0.39,0.06,0.59,0.06c0.81,0,1.43-0.22,1.85-0.65c0.42-0.43,0.63-1.03,0.63-1.78V99.76z"/>
			<path id="XMLID_907_" class="st1" d="M348.86,94.61h2.25v1.52h0.04c0.21-0.47,0.58-0.89,1.1-1.25c0.52-0.36,1.13-0.54,1.84-0.54
				c0.62,0,1.15,0.11,1.59,0.33c0.44,0.22,0.8,0.5,1.08,0.86c0.28,0.36,0.49,0.76,0.62,1.22c0.13,0.46,0.2,0.93,0.2,1.42v5.92h-2.37
				v-5.25c0-0.28-0.02-0.56-0.06-0.87c-0.04-0.3-0.13-0.57-0.26-0.82c-0.13-0.24-0.31-0.44-0.54-0.6c-0.23-0.16-0.54-0.24-0.92-0.24
				c-0.38,0-0.71,0.08-0.99,0.23c-0.28,0.15-0.5,0.34-0.68,0.58c-0.18,0.24-0.31,0.51-0.4,0.82c-0.09,0.31-0.14,0.62-0.14,0.94v5.21
				h-2.37V94.61z"/>
			<path id="XMLID_905_" class="st1" d="M369.48,104.08h-2.25v-1.52h-0.04c-0.21,0.47-0.58,0.89-1.09,1.25
				c-0.52,0.36-1.14,0.54-1.85,0.54c-0.62,0-1.15-0.11-1.59-0.33c-0.44-0.22-0.8-0.5-1.08-0.86c-0.28-0.36-0.49-0.76-0.62-1.22
				c-0.13-0.46-0.2-0.93-0.2-1.42v-5.92h2.37v5.25c0,0.28,0.02,0.57,0.06,0.87c0.04,0.3,0.12,0.57,0.26,0.82
				c0.13,0.24,0.31,0.44,0.54,0.6c0.23,0.16,0.54,0.24,0.92,0.24c0.37,0,0.69-0.08,0.98-0.23c0.28-0.15,0.51-0.34,0.69-0.58
				c0.18-0.24,0.31-0.51,0.4-0.82c0.09-0.31,0.14-0.62,0.14-0.94v-5.21h2.37V104.08z"/>
			<path id="XMLID_903_" class="st1" d="M373.19,96.5h-1.8v-1.89h1.8v-1.4c0-0.57,0.06-1.11,0.19-1.63
				c0.12-0.52,0.34-0.98,0.63-1.37c0.3-0.39,0.69-0.71,1.17-0.94c0.49-0.23,1.1-0.35,1.83-0.35c0.26,0,0.48,0.01,0.66,0.03
				c0.18,0.02,0.36,0.06,0.54,0.11l-0.16,2.01c-0.13-0.04-0.27-0.07-0.42-0.1c-0.15-0.03-0.31-0.04-0.48-0.04
				c-0.34,0-0.62,0.07-0.83,0.2c-0.21,0.13-0.37,0.3-0.48,0.51c-0.11,0.21-0.19,0.44-0.23,0.69c-0.04,0.25-0.06,0.49-0.06,0.73v1.54
				h2.19v1.89h-2.19v7.58h-2.37V96.5z"/>
			<path id="XMLID_900_" class="st1" d="M385.58,102.88h-0.06c-0.24,0.42-0.62,0.77-1.14,1.04c-0.53,0.27-1.12,0.4-1.8,0.4
				c-0.38,0-0.78-0.05-1.19-0.15c-0.41-0.1-0.8-0.26-1.14-0.49c-0.35-0.23-0.64-0.53-0.87-0.91c-0.23-0.37-0.35-0.84-0.35-1.39
				c0-0.71,0.2-1.28,0.6-1.7c0.4-0.42,0.92-0.74,1.55-0.97c0.63-0.22,1.33-0.37,2.1-0.44c0.77-0.07,1.52-0.11,2.26-0.11v-0.24
				c0-0.59-0.21-1.03-0.64-1.31c-0.43-0.28-0.94-0.42-1.53-0.42c-0.5,0-0.98,0.11-1.44,0.31c-0.46,0.21-0.84,0.47-1.14,0.77
				l-1.22-1.44c0.54-0.5,1.16-0.87,1.86-1.13c0.7-0.25,1.42-0.37,2.14-0.37c0.84,0,1.54,0.12,2.08,0.36
				c0.55,0.24,0.98,0.55,1.29,0.93c0.32,0.38,0.54,0.81,0.66,1.28c0.12,0.47,0.19,0.95,0.19,1.42v5.76h-2.21V102.88z M385.54,99.76
				H385c-0.38,0-0.78,0.02-1.2,0.05c-0.42,0.03-0.81,0.11-1.16,0.22c-0.36,0.11-0.65,0.27-0.89,0.47c-0.24,0.2-0.36,0.48-0.36,0.84
				c0,0.22,0.05,0.41,0.15,0.56c0.1,0.15,0.23,0.27,0.39,0.36c0.16,0.09,0.33,0.16,0.53,0.2c0.2,0.04,0.39,0.06,0.59,0.06
				c0.81,0,1.43-0.22,1.85-0.65c0.42-0.43,0.63-1.03,0.63-1.78V99.76z"/>
			<path id="XMLID_898_" class="st1" d="M397.51,97.24c-0.18-0.26-0.46-0.48-0.83-0.66c-0.37-0.18-0.74-0.27-1.12-0.27
				c-0.43,0-0.82,0.09-1.14,0.27c-0.33,0.18-0.6,0.41-0.82,0.7c-0.22,0.29-0.38,0.61-0.48,0.98c-0.11,0.36-0.16,0.73-0.16,1.09
				c0,0.37,0.06,0.73,0.17,1.09c0.11,0.36,0.28,0.69,0.5,0.98c0.22,0.29,0.5,0.52,0.84,0.7c0.33,0.18,0.73,0.27,1.17,0.27
				c0.37,0,0.74-0.07,1.1-0.22c0.37-0.15,0.66-0.36,0.89-0.63l1.48,1.5c-0.39,0.42-0.9,0.75-1.51,0.98
				c-0.61,0.23-1.27,0.35-1.98,0.35c-0.7,0-1.36-0.11-1.98-0.34c-0.62-0.22-1.17-0.55-1.64-0.99c-0.47-0.43-0.84-0.96-1.11-1.58
				c-0.27-0.62-0.4-1.32-0.4-2.11c0-0.76,0.13-1.45,0.4-2.07c0.27-0.62,0.63-1.14,1.1-1.58c0.46-0.43,1-0.77,1.61-1.01
				c0.61-0.24,1.27-0.36,1.96-0.36c0.7,0,1.37,0.13,2.02,0.39c0.65,0.26,1.17,0.63,1.55,1.09L397.51,97.24z"/>
			<path id="XMLID_896_" class="st1" d="M399.8,96.5v-1.89h1.66v-2.74h2.33v2.74h2.37v1.89h-2.37v4.4c0,0.42,0.08,0.77,0.23,1.05
				c0.15,0.28,0.49,0.42,1.02,0.42c0.16,0,0.33-0.02,0.51-0.05c0.18-0.03,0.35-0.08,0.49-0.15l0.08,1.85
				c-0.21,0.08-0.46,0.14-0.75,0.19c-0.29,0.05-0.57,0.07-0.83,0.07c-0.63,0-1.14-0.09-1.54-0.27c-0.39-0.18-0.71-0.42-0.94-0.73
				c-0.23-0.31-0.39-0.66-0.47-1.07c-0.09-0.4-0.13-0.83-0.13-1.29V96.5H399.8z"/>
			<path id="XMLID_894_" class="st1" d="M417.01,104.08h-2.25v-1.52h-0.04c-0.21,0.47-0.58,0.89-1.09,1.25
				c-0.52,0.36-1.14,0.54-1.85,0.54c-0.62,0-1.15-0.11-1.59-0.33c-0.44-0.22-0.8-0.5-1.08-0.86c-0.28-0.36-0.49-0.76-0.62-1.22
				c-0.13-0.46-0.2-0.93-0.2-1.42v-5.92h2.37v5.25c0,0.28,0.02,0.57,0.06,0.87c0.04,0.3,0.12,0.57,0.26,0.82
				c0.13,0.24,0.31,0.44,0.54,0.6c0.23,0.16,0.54,0.24,0.92,0.24c0.37,0,0.69-0.08,0.98-0.23c0.28-0.15,0.51-0.34,0.69-0.58
				c0.18-0.24,0.31-0.51,0.4-0.82c0.09-0.31,0.14-0.62,0.14-0.94v-5.21h2.37V104.08z"/>
			<path id="XMLID_892_" class="st1" d="M420.34,94.61h2.27v1.58h0.04c0.26-0.55,0.63-1,1.11-1.34c0.47-0.34,1.03-0.51,1.66-0.51
				c0.09,0,0.19,0,0.3,0.01c0.11,0.01,0.2,0.02,0.28,0.05v2.17c-0.16-0.04-0.29-0.06-0.4-0.08c-0.11-0.01-0.22-0.02-0.33-0.02
				c-0.54,0-0.97,0.1-1.3,0.3c-0.33,0.2-0.58,0.43-0.77,0.71c-0.18,0.28-0.31,0.56-0.37,0.85c-0.07,0.29-0.1,0.52-0.1,0.69v5.07
				h-2.37V94.61z"/>
			<path id="XMLID_889_" class="st1" d="M427.72,91.4c0-0.38,0.14-0.71,0.42-1c0.28-0.28,0.64-0.42,1.08-0.42
				c0.43,0,0.8,0.14,1.09,0.4c0.3,0.27,0.44,0.61,0.44,1.02c0,0.41-0.15,0.75-0.44,1.02c-0.3,0.27-0.66,0.4-1.09,0.4
				c-0.43,0-0.79-0.14-1.08-0.42C427.86,92.11,427.72,91.78,427.72,91.4z M428.05,94.61h2.37v9.47h-2.37V94.61z"/>
			<path id="XMLID_887_" class="st1" d="M433.79,94.61h2.25v1.52h0.04c0.21-0.47,0.58-0.89,1.1-1.25c0.52-0.36,1.13-0.54,1.84-0.54
				c0.62,0,1.15,0.11,1.59,0.33c0.44,0.22,0.8,0.5,1.09,0.86c0.28,0.36,0.49,0.76,0.62,1.22c0.13,0.46,0.2,0.93,0.2,1.42v5.92h-2.37
				v-5.25c0-0.28-0.02-0.56-0.06-0.87c-0.04-0.3-0.13-0.57-0.26-0.82c-0.13-0.24-0.31-0.44-0.54-0.6c-0.23-0.16-0.54-0.24-0.92-0.24
				c-0.38,0-0.71,0.08-0.99,0.23c-0.28,0.15-0.5,0.34-0.68,0.58c-0.18,0.24-0.31,0.51-0.4,0.82c-0.09,0.31-0.14,0.62-0.14,0.94v5.21
				h-2.37V94.61z"/>
			<path id="XMLID_884_" class="st1" d="M455.4,94.61v8.62c0,0.86-0.11,1.63-0.32,2.32c-0.21,0.69-0.54,1.28-0.98,1.76
				c-0.44,0.48-1,0.85-1.67,1.11c-0.67,0.26-1.47,0.39-2.39,0.39c-0.38,0-0.79-0.03-1.21-0.1c-0.43-0.07-0.85-0.16-1.26-0.3
				c-0.42-0.13-0.81-0.3-1.19-0.49c-0.38-0.2-0.72-0.42-1.03-0.67l1.36-1.83c0.46,0.43,0.98,0.77,1.56,1
				c0.58,0.23,1.16,0.35,1.76,0.35c0.57,0,1.04-0.08,1.43-0.25c0.39-0.16,0.7-0.39,0.93-0.68c0.23-0.29,0.39-0.63,0.49-1.03
				c0.1-0.4,0.15-0.83,0.15-1.31v-0.69h-0.04c-0.34,0.46-0.78,0.82-1.31,1.07c-0.53,0.24-1.13,0.37-1.79,0.37
				c-0.71,0-1.35-0.13-1.93-0.39c-0.58-0.26-1.07-0.62-1.47-1.07c-0.4-0.45-0.71-0.97-0.94-1.57c-0.22-0.6-0.34-1.23-0.34-1.9
				c0-0.68,0.11-1.33,0.33-1.93c0.22-0.6,0.53-1.13,0.93-1.58c0.4-0.45,0.89-0.8,1.46-1.07c0.57-0.26,1.21-0.39,1.92-0.39
				c0.67,0,1.3,0.14,1.87,0.42c0.58,0.28,1.04,0.7,1.38,1.28h0.04v-1.42H455.4z M450.35,96.27c-0.43,0-0.82,0.08-1.15,0.24
				c-0.34,0.16-0.62,0.37-0.85,0.64c-0.23,0.27-0.41,0.59-0.53,0.96c-0.12,0.37-0.19,0.76-0.19,1.18c0,0.38,0.06,0.75,0.19,1.1
				c0.12,0.35,0.3,0.67,0.53,0.95c0.23,0.28,0.51,0.51,0.85,0.68c0.33,0.17,0.71,0.26,1.13,0.26c0.43,0,0.83-0.08,1.17-0.25
				c0.35-0.16,0.64-0.38,0.89-0.66c0.24-0.28,0.43-0.59,0.56-0.96c0.13-0.36,0.2-0.74,0.2-1.13c0-0.41-0.07-0.79-0.2-1.16
				c-0.13-0.37-0.32-0.69-0.56-0.96c-0.24-0.27-0.54-0.49-0.88-0.65C451.17,96.35,450.78,96.27,450.35,96.27z"/>
			<path id="XMLID_882_" class="st1" d="M469.35,97.14c-0.21-0.28-0.5-0.52-0.87-0.72c-0.37-0.2-0.77-0.3-1.2-0.3
				c-0.38,0-0.73,0.08-1.05,0.24c-0.32,0.16-0.47,0.42-0.47,0.79c0,0.37,0.17,0.63,0.52,0.78c0.35,0.15,0.86,0.31,1.53,0.46
				c0.36,0.08,0.71,0.18,1.08,0.32c0.36,0.13,0.69,0.3,0.99,0.52c0.3,0.22,0.54,0.49,0.72,0.81c0.18,0.32,0.28,0.71,0.28,1.17
				c0,0.58-0.11,1.07-0.33,1.47c-0.22,0.4-0.51,0.73-0.87,0.98c-0.36,0.25-0.78,0.43-1.26,0.54c-0.48,0.11-0.98,0.17-1.49,0.17
				c-0.74,0-1.45-0.14-2.15-0.41c-0.7-0.27-1.28-0.65-1.74-1.15l1.56-1.46c0.26,0.34,0.6,0.63,1.02,0.85
				c0.42,0.22,0.89,0.33,1.4,0.33c0.17,0,0.34-0.02,0.52-0.06c0.18-0.04,0.34-0.1,0.49-0.19c0.15-0.09,0.27-0.2,0.36-0.35
				c0.09-0.15,0.14-0.32,0.14-0.53c0-0.39-0.18-0.68-0.54-0.85c-0.36-0.17-0.9-0.34-1.63-0.51c-0.36-0.08-0.7-0.18-1.04-0.31
				c-0.33-0.12-0.63-0.29-0.9-0.49c-0.26-0.2-0.47-0.46-0.63-0.76c-0.16-0.3-0.24-0.68-0.24-1.12c0-0.53,0.11-0.98,0.33-1.36
				c0.22-0.38,0.5-0.69,0.86-0.94c0.36-0.24,0.76-0.42,1.2-0.54c0.45-0.12,0.91-0.18,1.38-0.18c0.68,0,1.35,0.12,2,0.36
				c0.65,0.24,1.17,0.6,1.55,1.08L469.35,97.14z"/>
			<path id="XMLID_879_" class="st1" d="M472.86,99.31c0-0.75,0.13-1.43,0.4-2.04c0.27-0.61,0.63-1.14,1.1-1.57
				c0.46-0.43,1.01-0.77,1.64-1.01c0.63-0.24,1.3-0.36,2.01-0.36c0.71,0,1.38,0.12,2.01,0.36c0.63,0.24,1.18,0.57,1.64,1.01
				c0.46,0.43,0.83,0.96,1.1,1.57c0.27,0.61,0.4,1.29,0.4,2.04c0,0.75-0.14,1.43-0.4,2.05c-0.27,0.62-0.63,1.15-1.1,1.59
				c-0.46,0.44-1.01,0.79-1.64,1.04c-0.63,0.25-1.3,0.37-2.01,0.37c-0.71,0-1.38-0.12-2.01-0.37c-0.63-0.25-1.18-0.6-1.64-1.04
				c-0.46-0.44-0.83-0.97-1.1-1.59C472.99,100.74,472.86,100.06,472.86,99.31z M475.27,99.31c0,0.37,0.06,0.74,0.17,1.11
				c0.11,0.37,0.28,0.7,0.5,0.99c0.22,0.29,0.51,0.53,0.85,0.71c0.34,0.18,0.75,0.28,1.22,0.28c0.47,0,0.88-0.09,1.22-0.28
				c0.34-0.18,0.63-0.42,0.85-0.71c0.22-0.29,0.39-0.62,0.5-0.99c0.11-0.37,0.17-0.74,0.17-1.11c0-0.37-0.06-0.73-0.17-1.1
				c-0.11-0.36-0.28-0.69-0.5-0.98c-0.22-0.29-0.51-0.52-0.85-0.7c-0.34-0.18-0.75-0.27-1.22-0.27c-0.47,0-0.88,0.09-1.22,0.27
				c-0.34,0.18-0.63,0.41-0.85,0.7c-0.22,0.29-0.39,0.62-0.5,0.98C475.32,98.57,475.27,98.94,475.27,99.31z"/>
			<path id="XMLID_877_" class="st1" d="M485.98,89.17h2.37v14.92h-2.37V89.17z"/>
			<path id="XMLID_875_" class="st1" d="M500.36,104.08h-2.25v-1.52h-0.04c-0.21,0.47-0.57,0.89-1.09,1.25
				c-0.52,0.36-1.13,0.54-1.84,0.54c-0.62,0-1.15-0.11-1.59-0.33c-0.44-0.22-0.8-0.5-1.09-0.86c-0.28-0.36-0.49-0.76-0.62-1.22
				c-0.13-0.46-0.2-0.93-0.2-1.42v-5.92h2.37v5.25c0,0.28,0.02,0.57,0.06,0.87c0.04,0.3,0.12,0.57,0.26,0.82
				c0.13,0.24,0.31,0.44,0.54,0.6c0.23,0.16,0.54,0.24,0.92,0.24c0.37,0,0.69-0.08,0.98-0.23c0.28-0.15,0.51-0.34,0.69-0.58
				c0.18-0.24,0.31-0.51,0.4-0.82c0.09-0.31,0.14-0.62,0.14-0.94v-5.21h2.37V104.08z"/>
			<path id="XMLID_873_" class="st1" d="M502.33,96.5v-1.89h1.66v-2.74h2.33v2.74h2.37v1.89h-2.37v4.4c0,0.42,0.08,0.77,0.23,1.05
				c0.15,0.28,0.49,0.42,1.02,0.42c0.16,0,0.33-0.02,0.51-0.05c0.18-0.03,0.35-0.08,0.49-0.15l0.08,1.85
				c-0.21,0.08-0.46,0.14-0.75,0.19c-0.29,0.05-0.57,0.07-0.83,0.07c-0.63,0-1.14-0.09-1.54-0.27s-0.71-0.42-0.94-0.73
				c-0.23-0.31-0.39-0.66-0.47-1.07c-0.09-0.4-0.13-0.83-0.13-1.29V96.5H502.33z"/>
			<path id="XMLID_870_" class="st1" d="M510.6,91.4c0-0.38,0.14-0.71,0.42-1c0.28-0.28,0.64-0.42,1.08-0.42
				c0.43,0,0.8,0.14,1.1,0.4c0.3,0.27,0.44,0.61,0.44,1.02c0,0.41-0.15,0.75-0.44,1.02c-0.3,0.27-0.66,0.4-1.1,0.4
				c-0.43,0-0.79-0.14-1.08-0.42C510.74,92.11,510.6,91.78,510.6,91.4z M510.94,94.61h2.37v9.47h-2.37V94.61z"/>
			<path id="XMLID_867_" class="st1" d="M516.13,99.31c0-0.75,0.13-1.43,0.4-2.04c0.27-0.61,0.63-1.14,1.09-1.57
				c0.46-0.43,1.01-0.77,1.64-1.01c0.63-0.24,1.3-0.36,2.01-0.36c0.71,0,1.38,0.12,2.01,0.36c0.63,0.24,1.18,0.57,1.64,1.01
				c0.46,0.43,0.82,0.96,1.09,1.57c0.27,0.61,0.4,1.29,0.4,2.04c0,0.75-0.13,1.43-0.4,2.05c-0.27,0.62-0.63,1.15-1.09,1.59
				c-0.46,0.44-1.01,0.79-1.64,1.04c-0.63,0.25-1.3,0.37-2.01,0.37c-0.71,0-1.38-0.12-2.01-0.37c-0.63-0.25-1.18-0.6-1.64-1.04
				c-0.46-0.44-0.83-0.97-1.09-1.59C516.26,100.74,516.13,100.06,516.13,99.31z M518.53,99.31c0,0.37,0.06,0.74,0.17,1.11
				c0.11,0.37,0.28,0.7,0.5,0.99s0.51,0.53,0.85,0.71c0.34,0.18,0.75,0.28,1.22,0.28c0.47,0,0.88-0.09,1.22-0.28
				c0.34-0.18,0.62-0.42,0.85-0.71c0.22-0.29,0.39-0.62,0.5-0.99c0.11-0.37,0.17-0.74,0.17-1.11c0-0.37-0.06-0.73-0.17-1.1
				c-0.11-0.36-0.28-0.69-0.5-0.98c-0.22-0.29-0.51-0.52-0.85-0.7c-0.34-0.18-0.75-0.27-1.22-0.27c-0.47,0-0.88,0.09-1.22,0.27
				c-0.34,0.18-0.63,0.41-0.85,0.7c-0.22,0.29-0.39,0.62-0.5,0.98C518.59,98.57,518.53,98.94,518.53,99.31z"/>
			<path id="XMLID_865_" class="st1" d="M529.21,94.61h2.25v1.52h0.04c0.21-0.47,0.57-0.89,1.09-1.25c0.52-0.36,1.14-0.54,1.84-0.54
				c0.62,0,1.15,0.11,1.59,0.33c0.44,0.22,0.8,0.5,1.08,0.86c0.28,0.36,0.49,0.76,0.62,1.22c0.13,0.46,0.2,0.93,0.2,1.42v5.92h-2.37
				v-5.25c0-0.28-0.02-0.56-0.06-0.87c-0.04-0.3-0.12-0.57-0.26-0.82c-0.13-0.24-0.31-0.44-0.54-0.6c-0.23-0.16-0.54-0.24-0.92-0.24
				c-0.38,0-0.71,0.08-0.99,0.23c-0.28,0.15-0.5,0.34-0.68,0.58c-0.18,0.24-0.31,0.51-0.4,0.82c-0.09,0.31-0.14,0.62-0.14,0.94v5.21
				h-2.37V94.61z"/>
			<path id="XMLID_863_" class="st1" d="M546.37,97.14c-0.21-0.28-0.5-0.52-0.87-0.72c-0.37-0.2-0.77-0.3-1.2-0.3
				c-0.38,0-0.73,0.08-1.05,0.24c-0.32,0.16-0.47,0.42-0.47,0.79c0,0.37,0.17,0.63,0.52,0.78c0.35,0.15,0.86,0.31,1.53,0.46
				c0.36,0.08,0.71,0.18,1.08,0.32c0.36,0.13,0.69,0.3,0.99,0.52c0.3,0.22,0.54,0.49,0.72,0.81c0.18,0.32,0.28,0.71,0.28,1.17
				c0,0.58-0.11,1.07-0.33,1.47c-0.22,0.4-0.51,0.73-0.87,0.98c-0.36,0.25-0.78,0.43-1.26,0.54c-0.48,0.11-0.98,0.17-1.49,0.17
				c-0.74,0-1.45-0.14-2.15-0.41c-0.7-0.27-1.28-0.65-1.74-1.15l1.56-1.46c0.26,0.34,0.6,0.63,1.03,0.85
				c0.42,0.22,0.89,0.33,1.4,0.33c0.17,0,0.35-0.02,0.52-0.06c0.18-0.04,0.34-0.1,0.49-0.19c0.15-0.09,0.27-0.2,0.36-0.35
				c0.09-0.15,0.14-0.32,0.14-0.53c0-0.39-0.18-0.68-0.54-0.85c-0.36-0.17-0.9-0.34-1.63-0.51c-0.36-0.08-0.7-0.18-1.04-0.31
				c-0.34-0.12-0.63-0.29-0.9-0.49c-0.26-0.2-0.47-0.46-0.63-0.76c-0.16-0.3-0.24-0.68-0.24-1.12c0-0.53,0.11-0.98,0.33-1.36
				c0.22-0.38,0.5-0.69,0.86-0.94c0.36-0.24,0.76-0.42,1.2-0.54c0.45-0.12,0.91-0.18,1.38-0.18c0.68,0,1.35,0.12,2,0.36
				c0.65,0.24,1.17,0.6,1.55,1.08L546.37,97.14z"/>
		</g>
	</g>
</g>
</svg>
